<?xml version="1.0" encoding="utf-8"?>
<!-- Generator: Adobe Illustrator 24.0.1, SVG Export Plug-In . SVG Version: 6.00 Build 0)  -->
<svg version="1.1" id="Ebene_1" xmlns="http://www.w3.org/2000/svg" xmlns:xlink="http://www.w3.org/1999/xlink" x="0px" y="0px"
	 viewBox="0 -278 1000 722" style="enable-background:new 0 0 1000 444;" xml:space="preserve">
<style type="text/css">
	.st0{fill:#D20C52;}
	.st1{fill:#B71E61;}
	.st2{fill:#DD2589;}
	.st3{fill:#781F90;}
	.st4{fill:#9A2578;}
	.st5{fill:#D10882;}
	.st6{fill:#AF1D99;}
	.st7{fill:#67129A;}
	.st8{fill:#8A19A6;}
	.st9{fill:#141515;}
</style>
<title>eth_ai_center_logo_rgb_positiv_RGB, negativ</title>
<g>
	<path class="st0" d="M288.3,25.8c-9.6,0-19.2,1.1-28.6,3.3c45.4,41.4,48.7,111.7,7.3,157.1c-21.4,23.5-51.8,36.7-83.5,36.3
		c38.9,57.9,117.4,73.2,175.2,34.3c57.9-38.9,73.2-117.4,34.3-175.2C369.6,46.7,330.3,25.8,288.3,25.8z"/>
	<path class="st1" d="M259.7,29c-1.5-1.3-3-2.6-4.5-3.9C207.6-13.8,137.5-6.7,98.6,40.9C91.1,50,85.2,60.2,80.9,71.2
		c44.6,0.1,80.7,36.3,80.7,80.9c0,22.4-9.4,43.8-25.8,59.1c14.8,7.3,31.1,11.1,47.7,11.3C144.6,164.6,160,86.1,217.9,47.2
		C230.6,38.7,244.7,32.5,259.7,29z"/>
	<path class="st2" d="M270.9,181.7c37.4-45.8,32.5-112.8-11.2-152.6c-67.9,15.8-110.2,83.7-94.4,151.6c3.5,14.9,9.6,29.1,18.2,41.8
		C217.3,222.9,249.5,207.9,270.9,181.7z"/>
	<path class="st3" d="M23.3,208.9c-20.9,28-15.1,67.6,12.8,88.5c12,9,26.8,13.4,41.7,12.4c-17.3-22-13.4-53.8,8.6-71
		c13.8-10.9,32.4-13.8,48.9-7.6c-1.3-5.1-3.2-10-5.7-14.7C97.3,240.9,51.8,237.7,23.3,208.9L23.3,208.9z"/>
	<path class="st4" d="M80.9,71.2C36.3,71.2,0.1,107.3,0,152c0,21.3,8.4,41.8,23.3,56.9c0.6-0.7,1.1-1.5,1.7-2.2
		c22.1-27,62-31,89-8.9c6.3,5.2,11.6,11.5,15.5,18.7c2.2-1.6,4.3-3.4,6.3-5.3C84,185.9,60.1,125.1,80.9,71.2z"/>
	<path class="st5" d="M158.4,129.4C148.3,95,116.8,71.3,80.9,71.2c-20.8,53.8,3.1,114.6,54.9,140
		C158.2,190.4,166.9,158.7,158.4,129.4z"/>
	<path class="st6" d="M114.1,197.7c-27-22.1-66.9-18.1-89,8.9c-0.6,0.7-1.2,1.5-1.7,2.2c28.5,28.8,73.9,32,106.2,7.6
		C125.7,209.3,120.4,202.9,114.1,197.7z"/>
	<path class="st7" d="M123,286.7c-11.1,13.7-27.5,22-45.1,23.1c17.3,22,49.1,25.8,71,8.6c22-17.3,25.8-49.1,8.6-71
		c-5.8-7.3-13.4-12.9-22.2-16.2C140.3,250.6,135.7,271.2,123,286.7z"/>
	<path class="st8" d="M103.5,230c-26.8,7.8-42.2,35.9-34.4,62.7c1.8,6.2,4.8,12,8.8,17.1c34.9-2.1,61.4-32.1,59.2-67
		c-0.2-3.9-0.9-7.9-1.8-11.7C125.1,227.3,114,226.9,103.5,230z"/>
	<path class="st9" d="M229,363.4c0-0.6,0.4-1.1,1-1.2c0,0,0.1,0,0.1,0h51.5c0.6,0,1.1,0.4,1.2,1c0,0,0,0.1,0,0.1v12.7
		c0,0.6-0.4,1.1-1,1.2c0,0-0.1,0-0.1,0h-34.6c-0.3,0-0.7,0.2-0.7,0.5c0,0.1,0,0.1,0,0.2v16c0,0.3,0.2,0.7,0.5,0.7c0.1,0,0.1,0,0.2,0
		h28.8c0.6,0,1.1,0.4,1.2,1c0,0,0,0.1,0,0.1v12.5c0,0.6-0.4,1.1-1,1.2c0,0-0.1,0-0.1,0h-28.8c-0.3,0-0.7,0.2-0.7,0.5
		c0,0.1,0,0.1,0,0.2v16.7c0,0.3,0.2,0.7,0.5,0.7c0.1,0,0.1,0,0.2,0h34.6c0.6,0,1.1,0.4,1.2,1c0,0,0,0.1,0,0.1v12.7
		c0,0.6-0.4,1.1-1,1.2c0,0-0.1,0-0.1,0h-51.5c-0.6,0-1.1-0.4-1.2-1c0,0,0-0.1,0-0.1V363.4z"/>
	<path class="st9" d="M314.1,442.7c-0.6,0-1.1-0.4-1.2-1c0,0,0-0.1,0-0.1v-63c0-0.3-0.2-0.7-0.5-0.7c-0.1,0-0.1,0-0.2,0h-20.3
		c-0.6,0-1.1-0.4-1.2-1c0,0,0-0.1,0-0.1v-13.1c0-0.6,0.4-1.1,1-1.2c0,0,0.1,0,0.1,0h59.5c0.6,0,1.1,0.4,1.2,1c0,0,0,0.1,0,0.1v13.1
		c0,0.6-0.4,1.1-1,1.2c0,0-0.1,0-0.1,0H331c-0.3,0-0.7,0.2-0.7,0.5c0,0.1,0,0.1,0,0.2v63c0,0.6-0.4,1.1-1,1.2c0,0-0.1,0-0.1,0H314.1
		z"/>
	<path class="st9" d="M361.4,363.4c0-0.6,0.4-1.1,1-1.2c0,0,0.1,0,0.1,0h15c0.6,0,1.1,0.4,1.2,1c0,0,0,0.1,0,0.1v30.1
		c0,0.3,0.2,0.7,0.5,0.7c0.1,0,0.1,0,0.2,0h26.2c0.3,0,0.7-0.2,0.7-0.5c0-0.1,0-0.1,0-0.2v-30.1c0-0.6,0.4-1.1,1-1.2
		c0,0,0.1,0,0.1,0h15c0.6,0,1.1,0.4,1.2,1c0,0,0,0.1,0,0.1v78c0,0.6-0.4,1.1-1,1.2c0,0-0.1,0-0.1,0h-15c-0.6,0-1.1-0.4-1.2-1
		c0,0,0-0.1,0-0.1v-31c0-0.3-0.2-0.7-0.5-0.7c-0.1,0-0.1,0-0.2,0h-26.2c-0.3,0-0.7,0.2-0.7,0.5c0,0.1,0,0.1,0,0.2v31
		c0,0.6-0.4,1.1-1,1.2c0,0-0.1,0-0.1,0h-15c-0.6,0-1.1-0.4-1.2-1c0,0,0-0.1,0-0.1L361.4,363.4z"/>
	<path class="st9" d="M487.2,363.4c0.2-0.7,0.8-1.2,1.5-1.2h14.9c0.7,0,1.4,0.5,1.5,1.2l27.2,78c0.2,0.7,0,1.2-0.8,1.2h-15.4
		c-0.7,0.1-1.4-0.4-1.5-1.2l-4.6-14.1h-28.1l-4.5,14.1c-0.1,0.7-0.8,1.3-1.5,1.2h-15.5c-0.8,0-1.1-0.5-0.8-1.2L487.2,363.4z
		 M505.3,412.6l-9.1-28.1h-0.4l-9.1,28.1H505.3z"/>
	<path class="st9" d="M540.8,363.4c0-0.6,0.4-1.1,1-1.2c0,0,0.1,0,0.1,0h15c0.6,0,1.1,0.4,1.2,1c0,0,0,0.1,0,0.1v78
		c0,0.6-0.4,1.1-1,1.2c0,0-0.1,0-0.1,0h-15c-0.6,0-1.1-0.4-1.2-1c0,0,0-0.1,0-0.1L540.8,363.4z"/>
	<path class="st9" d="M598.6,402.5c0-12.4,0.5-16.6,2.2-21.8c4.3-13.1,14.5-19.7,28.6-19.7c13.6,0,23.5,6.6,28,17.9
		c0.3,0.4,0.2,1-0.2,1.3c-0.1,0.1-0.2,0.1-0.4,0.1L644,386c-0.5,0.3-1.2,0.2-1.6-0.4c0-0.1-0.1-0.1-0.1-0.2c-2.2-5.2-6-9.1-12.8-9.1
		c-6.3,0-10.3,3.3-12.1,8.9c-0.9,3-1.3,5.8-1.3,17.3c0,11.5,0.4,14.3,1.3,17.3c1.8,5.6,5.8,8.9,12.1,8.9c6.7,0,10.5-3.9,12.8-9.1
		c0.2-0.6,0.8-0.9,1.4-0.7c0.1,0,0.1,0.1,0.2,0.1l12.9,5.8c0.5,0.1,0.8,0.6,0.7,1.1c0,0.1-0.1,0.3-0.1,0.4
		c-4.5,11.2-14.4,17.9-28,17.9c-14.1,0-24.4-6.6-28.6-19.7C599.1,419,598.6,414.9,598.6,402.5z"/>
	<path class="st9" d="M667.2,363.4c0-0.6,0.4-1.1,1-1.2c0,0,0.1,0,0.1,0h51.5c0.6,0,1.1,0.4,1.2,1c0,0,0,0.1,0,0.1v12.7
		c0,0.6-0.4,1.1-1,1.2c0,0-0.1,0-0.1,0h-34.6c-0.3,0-0.7,0.2-0.7,0.5c0,0.1,0,0.1,0,0.2v16c0,0.3,0.2,0.7,0.5,0.7c0.1,0,0.1,0,0.2,0
		h28.8c0.6,0,1.1,0.4,1.2,1c0,0,0,0.1,0,0.1v12.5c0,0.6-0.4,1.1-1,1.2c0,0-0.1,0-0.1,0h-28.8c-0.3,0-0.7,0.2-0.7,0.5
		c0,0.1,0,0.1,0,0.2v16.7c0,0.3,0.2,0.7,0.5,0.7c0.1,0,0.1,0,0.2,0h34.6c0.6,0,1.1,0.4,1.2,1c0,0,0,0.1,0,0.1v12.7
		c0,0.6-0.4,1.1-1,1.2c0,0-0.1,0-0.1,0h-51.5c-0.6,0-1.1-0.4-1.2-1c0,0,0-0.1,0-0.1L667.2,363.4z"/>
	<path class="st9" d="M731.9,363.4c0-0.6,0.4-1.1,1-1.2c0,0,0.1,0,0.1,0h14.2c0.8,0,1.6,0.4,2,1.2l28.4,50.6h0.6v-50.6
		c0-0.6,0.4-1.1,1-1.2c0,0,0.1,0,0.1,0h13.4c0.6,0,1.1,0.4,1.2,1c0,0,0,0.1,0,0.1v78c0,0.6-0.4,1.1-1,1.2c0,0-0.1,0-0.1,0h-14.1
		c-0.8,0.1-1.6-0.4-2-1.2L748.3,391h-0.6v50.5c0,0.6-0.4,1.1-1,1.2c0,0-0.1,0-0.1,0h-13.4c-0.6,0-1.1-0.4-1.2-1c0,0,0-0.1,0-0.1
		V363.4z"/>
	<path class="st9" d="M826.2,442.7c-0.6,0-1.1-0.4-1.2-1c0,0,0-0.1,0-0.1v-63c0-0.3-0.2-0.7-0.5-0.7c-0.1,0-0.1,0-0.2,0h-20.3
		c-0.6,0-1.1-0.4-1.2-1c0,0,0-0.1,0-0.1v-13.1c0-0.6,0.4-1.1,1-1.2c0,0,0.1,0,0.1,0h59.5c0.6,0,1.1,0.4,1.2,1c0,0,0,0.1,0,0.1v13.1
		c0,0.6-0.4,1.1-1,1.2c0,0-0.1,0-0.1,0h-20.3c-0.3,0-0.7,0.2-0.7,0.5c0,0.1,0,0.1,0,0.2v63c0,0.6-0.4,1.1-1,1.2c0,0-0.1,0-0.1,0
		H826.2z"/>
	<path class="st9" d="M873.2,363.4c0-0.6,0.4-1.1,1-1.2c0,0,0.1,0,0.1,0H926c0.6,0,1.1,0.4,1.2,1c0,0,0,0.1,0,0.1v12.7
		c0,0.6-0.4,1.1-1,1.2c0,0-0.1,0-0.1,0h-34.6c-0.3,0-0.7,0.2-0.7,0.5c0,0.1,0,0.1,0,0.2v16c0,0.3,0.2,0.7,0.5,0.7c0.1,0,0.1,0,0.2,0
		h28.8c0.6,0,1.1,0.4,1.2,1c0,0,0,0.1,0,0.1v12.5c0,0.6-0.4,1.1-1,1.2c0,0-0.1,0-0.1,0h-28.8c-0.3,0-0.7,0.2-0.7,0.5
		c0,0.1,0,0.1,0,0.2v16.7c0,0.3,0.2,0.7,0.5,0.7c0.1,0,0.1,0,0.2,0H926c0.6,0,1.1,0.4,1.2,1c0,0,0,0.1,0,0.1v12.7
		c0,0.6-0.4,1.1-1,1.2c0,0-0.1,0-0.1,0h-51.5c-0.6,0-1.1-0.4-1.2-1c0,0,0-0.1,0-0.1L873.2,363.4z"/>
	<path class="st9" d="M982.2,442.7c-0.8,0.1-1.6-0.4-1.8-1.2L966.6,412h-10.8c-0.3,0-0.7,0.2-0.7,0.5c0,0.1,0,0.1,0,0.2v28.7
		c0,0.6-0.4,1.1-1,1.2c0,0-0.1,0-0.1,0h-15c-0.6,0-1.1-0.4-1.2-1c0,0,0-0.1,0-0.1v-78c0-0.6,0.4-1.1,1-1.2c0,0,0.1,0,0.1,0h32
		c16.4,0,27.3,10.3,27.3,24.9c0,10.3-5.4,18.4-14.3,22.3l15.8,31.7c0.3,0.4,0.2,1-0.2,1.3c-0.2,0.1-0.4,0.2-0.6,0.2H982.2z
		 M980.9,387.2c0-6-4.3-9.9-10.9-9.9h-14.2c-0.3,0-0.7,0.2-0.7,0.5c0,0.1,0,0.1,0,0.2v18.6c0,0.3,0.2,0.7,0.5,0.7c0.1,0,0.1,0,0.2,0
		H970C976.7,397.3,980.9,393.4,980.9,387.2z"/>
</g>
</svg>
