<?xml version="1.0" encoding="UTF-8"?>
<svg id="Layer_2" data-name="Layer 2" xmlns="http://www.w3.org/2000/svg" viewBox="0 0 377.88 102.37">
  <g id="Layer_1-2" data-name="Layer 1">
    <g>
      <path d="M31.44,102.37V14.33H0V0h78.68v14.33h-31.44v88.04h-15.79Z"/>
      <path d="M111.73,61.57c-3.41,0-6.27-1.12-8.56-3.36-2.29-2.24-3.44-5.12-3.44-8.63s1.14-6.36,3.44-8.55c2.29-2.19,5.14-3.29,8.56-3.29s6.26,1.12,8.55,3.36c2.29,2.24,3.44,5.07,3.44,8.48s-1.15,6.39-3.44,8.63c-2.29,2.24-5.14,3.36-8.55,3.36Z"/>
      <path d="M144.34,102.37L173.58,0h27.79l29.1,102.37h-16.23l-6.73-24.13h-40.07l-6.73,24.13h-16.38ZM171.39,63.61h32.17l-14.92-53.82h-2.34l-14.92,53.82Z"/>
      <path d="M263.08,61.57c-3.41,0-6.27-1.12-8.56-3.36-2.29-2.24-3.44-5.12-3.44-8.63s1.14-6.36,3.44-8.55c2.29-2.19,5.14-3.29,8.56-3.29s6.26,1.12,8.55,3.36c2.29,2.24,3.44,5.07,3.44,8.48s-1.15,6.39-3.44,8.63c-2.29,2.24-5.14,3.36-8.55,3.36Z"/>
      <path d="M303.3,102.37V0h15.79v43.87h43V0h15.79v102.37h-15.79v-44.17h-43v44.17h-15.79Z"/>
    </g>
  </g>
</svg>