<?xml version="1.0" encoding="UTF-8"?>
<svg id="Layer_1" xmlns="http://www.w3.org/2000/svg" version="1.1" viewBox="0 0 3840 3840">
  <!-- Generator: Adobe Illustrator 30.4.0, SVG Export Plug-In . SVG Version: 2.1.4 Build 226)  -->
  <g>
    <path d="M785.5,1097.5v-93.9h-34.2v-8.5h77.8v8.5h-34.2v93.9h-9.4Z"/>
    <path d="M845.9,1054c-2.4,0-4.4-.8-6-2.3-1.6-1.6-2.3-3.6-2.3-6s.8-4.4,2.3-6c1.6-1.6,3.6-2.3,6-2.3s4.4.8,6,2.3c1.6,1.6,2.3,3.6,2.3,6s-.8,4.4-2.3,6c-1.6,1.6-3.6,2.3-6,2.3Z"/>
    <path d="M862.8,1097.5l33.5-102.4h16.7l33.5,102.4h-9.8l-8.8-27.2h-46.5l-8.8,27.2h-9.8ZM884,1061.8h41.2l-19.7-61.1h-1.8l-19.7,61.1Z"/>
    <path d="M963.2,1054c-2.4,0-4.4-.8-6-2.3-1.6-1.6-2.3-3.6-2.3-6s.8-4.4,2.3-6c1.6-1.6,3.6-2.3,6-2.3s4.4.8,6,2.3c1.6,1.6,2.3,3.6,2.3,6s-.8,4.4-2.3,6c-1.6,1.6-3.6,2.3-6,2.3Z"/>
    <path d="M988.5,1097.5v-102.4h9.4v46.8h52.1v-46.8h9.4v102.4h-9.4v-47.1h-52.1v47.1h-9.4Z"/>
  </g>
  <g>
    <path d="M785.5,929.4v-93.9h-34.2v-8.5h77.8v8.5h-34.2v93.9h-9.4Z"/>
    <path d="M842.3,886c-2.4,0-4.4-.8-6-2.3-1.6-1.6-2.3-3.6-2.3-6s.8-4.4,2.3-6c1.6-1.6,3.6-2.3,6-2.3s4.4.8,6,2.3c1.6,1.6,2.3,3.6,2.3,6s-.8,4.4-2.3,6c-1.6,1.6-3.6,2.3-6,2.3Z"/>
    <path d="M855.4,929.4l33.5-102.4h16.7l33.5,102.4h-9.8l-8.8-27.2h-46.5l-8.8,27.2h-9.8ZM876.6,893.8h41.2l-19.7-61.1h-1.8l-19.7,61.1Z"/>
    <path d="M952.2,886c-2.4,0-4.4-.8-6-2.3-1.6-1.6-2.3-3.6-2.3-6s.8-4.4,2.3-6c1.6-1.6,3.6-2.3,6-2.3s4.4.8,6,2.3c1.6,1.6,2.3,3.6,2.3,6s-.8,4.4-2.3,6c-1.6,1.6-3.6,2.3-6,2.3Z"/>
    <path d="M973.9,929.4v-102.4h9.4v46.8h52.1v-46.8h9.4v102.4h-9.4v-47.1h-52.1v47.1h-9.4Z"/>
  </g>
  <g>
    <path d="M785.5,761.4v-93.9h-34.2v-8.5h77.8v8.5h-34.2v93.9h-9.4Z"/>
    <path d="M838.6,718c-2.4,0-4.4-.8-6-2.3-1.6-1.6-2.3-3.6-2.3-6s.8-4.4,2.3-6c1.6-1.6,3.6-2.3,6-2.3s4.4.8,6,2.3c1.6,1.6,2.3,3.6,2.3,6s-.8,4.4-2.3,6c-1.6,1.6-3.6,2.3-6,2.3Z"/>
    <path d="M848.1,761.4l33.5-102.4h16.7l33.5,102.4h-9.8l-8.8-27.2h-46.5l-8.8,27.2h-9.8ZM869.3,725.7h41.2l-19.7-61.1h-1.8l-19.7,61.1Z"/>
    <path d="M941.3,718c-2.4,0-4.4-.8-6-2.3-1.6-1.6-2.3-3.6-2.3-6s.8-4.4,2.3-6c1.6-1.6,3.6-2.3,6-2.3s4.4.8,6,2.3c1.6,1.6,2.3,3.6,2.3,6s-.8,4.4-2.3,6c-1.6,1.6-3.6,2.3-6,2.3Z"/>
    <path d="M959.3,761.4v-102.4h9.4v46.8h52.1v-46.8h9.4v102.4h-9.4v-47.1h-52.1v47.1h-9.4Z"/>
  </g>
  <g>
    <path d="M785.5,1265.5v-93.9h-34.2v-8.5h77.8v8.5h-34.2v93.9h-9.4Z"/>
    <path d="M860.6,1222.1c-2.4,0-4.4-.8-6-2.3-1.6-1.6-2.3-3.6-2.3-6s.8-4.4,2.3-6c1.6-1.6,3.6-2.3,6-2.3s4.4.8,6,2.3c1.6,1.6,2.3,3.6,2.3,6s-.8,4.4-2.3,6c-1.6,1.6-3.6,2.3-6,2.3Z"/>
    <path d="M892,1265.5l33.5-102.4h16.7l33.5,102.4h-9.8l-8.8-27.2h-46.5l-8.8,27.2h-9.8ZM913.2,1229.8h41.2l-19.7-61.1h-1.8l-19.7,61.1Z"/>
    <path d="M1007.1,1222.1c-2.4,0-4.4-.8-6-2.3-1.6-1.6-2.3-3.6-2.3-6s.8-4.4,2.3-6c1.6-1.6,3.6-2.3,6-2.3s4.4.8,6,2.3c1.6,1.6,2.3,3.6,2.3,6s-.8,4.4-2.3,6c-1.6,1.6-3.6,2.3-6,2.3Z"/>
    <path d="M1047,1265.5v-102.4h9.4v46.8h52.1v-46.8h9.4v102.4h-9.4v-47.1h-52.1v47.1h-9.4Z"/>
  </g>
  <g>
    <path d="M785.5,1433.5v-93.9h-34.2v-8.5h77.8v8.5h-34.2v93.9h-9.4Z"/>
    <path d="M875.2,1390.1c-2.4,0-4.4-.8-6-2.3-1.6-1.6-2.3-3.6-2.3-6s.8-4.4,2.3-6c1.6-1.6,3.6-2.3,6-2.3s4.4.8,6,2.3c1.6,1.6,2.3,3.6,2.3,6s-.8,4.4-2.3,6c-1.6,1.6-3.6,2.3-6,2.3Z"/>
    <path d="M921.2,1433.5l33.5-102.4h16.7l33.5,102.4h-9.8l-8.8-27.2h-46.5l-8.8,27.2h-9.8ZM942.5,1397.8h41.2l-19.7-61.1h-1.8l-19.7,61.1Z"/>
    <path d="M1051,1390.1c-2.4,0-4.4-.8-6-2.3-1.6-1.6-2.3-3.6-2.3-6s.8-4.4,2.3-6c1.6-1.6,3.6-2.3,6-2.3s4.4.8,6,2.3c1.6,1.6,2.3,3.6,2.3,6s-.8,4.4-2.3,6c-1.6,1.6-3.6,2.3-6,2.3Z"/>
    <path d="M1105.5,1433.5v-102.4h9.4v46.8h52.1v-46.8h9.4v102.4h-9.4v-47.1h-52.1v47.1h-9.4Z"/>
  </g>
  <g>
    <path d="M1377,1097.5v-91.3h-32.9v-11.1h78.1v11.1h-32.9v91.3h-12.3Z"/>
    <path d="M1439.7,1055.2c-2.8,0-5.2-.9-7.1-2.8-1.9-1.9-2.9-4.2-2.9-7.2s1-5.3,2.9-7.2c1.9-1.9,4.3-2.8,7.1-2.8s5.3.9,7.2,2.8c1.9,1.9,2.8,4.2,2.8,7.2s-.9,5.3-2.8,7.2-4.2,2.8-7.2,2.8Z"/>
    <path d="M1457.1,1097.5l31.6-102.4h21.6l31.6,102.4h-12.7l-7.9-25.9h-43.6l-7.9,25.9h-12.7ZM1480.8,1060.5h37.3l-17.5-57.9h-2l-17.7,57.9Z"/>
    <path d="M1559.2,1055.2c-2.8,0-5.2-.9-7.1-2.8-1.9-1.9-2.9-4.2-2.9-7.2s1-5.3,2.9-7.2c1.9-1.9,4.3-2.8,7.1-2.8s5.3.9,7.2,2.8c1.9,1.9,2.8,4.2,2.8,7.2s-.9,5.3-2.8,7.2-4.2,2.8-7.2,2.8Z"/>
    <path d="M1584.6,1097.5v-102.4h12.3v45.5h48v-45.5h12.3v102.4h-12.3v-45.8h-48v45.8h-12.3Z"/>
  </g>
  <g>
    <path d="M1377,929.4v-91.3h-32.9v-11.1h78.1v11.1h-32.9v91.3h-12.3Z"/>
    <path d="M1436.1,887.2c-2.8,0-5.2-.9-7.1-2.8-1.9-1.9-2.9-4.2-2.9-7.2s1-5.3,2.9-7.2c1.9-1.9,4.3-2.8,7.1-2.8s5.3.9,7.2,2.8c1.9,1.9,2.8,4.2,2.8,7.2s-.9,5.3-2.8,7.2-4.2,2.8-7.2,2.8Z"/>
    <path d="M1449.8,929.4l31.6-102.4h21.6l31.6,102.4h-12.7l-7.9-25.9h-43.6l-7.9,25.9h-12.7ZM1473.5,892.4h37.3l-17.5-57.9h-2l-17.7,57.9Z"/>
    <path d="M1548.2,887.2c-2.8,0-5.2-.9-7.1-2.8-1.9-1.9-2.9-4.2-2.9-7.2s1-5.3,2.9-7.2c1.9-1.9,4.3-2.8,7.1-2.8s5.3.9,7.2,2.8c1.9,1.9,2.8,4.2,2.8,7.2s-.9,5.3-2.8,7.2-4.2,2.8-7.2,2.8Z"/>
    <path d="M1570,929.4v-102.4h12.3v45.5h48v-45.5h12.3v102.4h-12.3v-45.8h-48v45.8h-12.3Z"/>
  </g>
  <g>
    <path d="M1377,761.4v-91.3h-32.9v-11.1h78.1v11.1h-32.9v91.3h-12.3Z"/>
    <path d="M1432.4,719.1c-2.8,0-5.2-.9-7.1-2.8-1.9-1.9-2.9-4.2-2.9-7.2s1-5.3,2.9-7.2c1.9-1.9,4.3-2.8,7.1-2.8s5.3.9,7.2,2.8c1.9,1.9,2.8,4.2,2.8,7.2s-.9,5.3-2.8,7.2-4.2,2.8-7.2,2.8Z"/>
    <path d="M1442.5,761.4l31.6-102.4h21.6l31.6,102.4h-12.7l-7.9-25.9h-43.6l-7.9,25.9h-12.7ZM1466.2,724.4h37.3l-17.5-57.9h-2l-17.7,57.9Z"/>
    <path d="M1537.2,719.1c-2.8,0-5.2-.9-7.1-2.8-1.9-1.9-2.9-4.2-2.9-7.2s1-5.3,2.9-7.2c1.9-1.9,4.3-2.8,7.1-2.8s5.3.9,7.2,2.8c1.9,1.9,2.8,4.2,2.8,7.2s-.9,5.3-2.8,7.2-4.2,2.8-7.2,2.8Z"/>
    <path d="M1555.4,761.4v-102.4h12.3v45.5h48v-45.5h12.3v102.4h-12.3v-45.8h-48v45.8h-12.3Z"/>
  </g>
  <g>
    <path d="M1377,1265.5v-91.3h-32.9v-11.1h78.1v11.1h-32.9v91.3h-12.3Z"/>
    <path d="M1454.3,1223.2c-2.8,0-5.2-.9-7.1-2.8-1.9-1.9-2.9-4.2-2.9-7.2s1-5.3,2.9-7.2c1.9-1.9,4.3-2.8,7.1-2.8s5.3.9,7.2,2.8c1.9,1.9,2.8,4.2,2.8,7.2s-.9,5.3-2.8,7.2-4.2,2.8-7.2,2.8Z"/>
    <path d="M1486.4,1265.5l31.6-102.4h21.6l31.6,102.4h-12.7l-7.9-25.9h-43.6l-7.9,25.9h-12.7ZM1510,1228.5h37.3l-17.5-57.9h-2l-17.7,57.9Z"/>
    <path d="M1603.1,1223.2c-2.8,0-5.2-.9-7.1-2.8-1.9-1.9-2.9-4.2-2.9-7.2s1-5.3,2.9-7.2c1.9-1.9,4.3-2.8,7.1-2.8s5.3.9,7.2,2.8c1.9,1.9,2.8,4.2,2.8,7.2s-.9,5.3-2.8,7.2-4.2,2.8-7.2,2.8Z"/>
    <path d="M1643.1,1265.5v-102.4h12.3v45.5h48v-45.5h12.3v102.4h-12.3v-45.8h-48v45.8h-12.3Z"/>
  </g>
  <g>
    <path d="M1377,1433.5v-91.3h-32.9v-11.1h78.1v11.1h-32.9v91.3h-12.3Z"/>
    <path d="M1469,1391.3c-2.8,0-5.2-.9-7.1-2.8-1.9-1.9-2.9-4.2-2.9-7.2s1-5.3,2.9-7.2c1.9-1.9,4.3-2.8,7.1-2.8s5.3.9,7.2,2.8c1.9,1.9,2.8,4.2,2.8,7.2s-.9,5.3-2.8,7.2-4.2,2.8-7.2,2.8Z"/>
    <path d="M1515.6,1433.5l31.6-102.4h21.6l31.6,102.4h-12.7l-7.9-25.9h-43.6l-7.9,25.9h-12.7ZM1539.3,1396.5h37.3l-17.5-57.9h-2l-17.7,57.9Z"/>
    <path d="M1646.9,1391.3c-2.8,0-5.2-.9-7.1-2.8-1.9-1.9-2.9-4.2-2.9-7.2s1-5.3,2.9-7.2c1.9-1.9,4.3-2.8,7.1-2.8s5.3.9,7.2,2.8c1.9,1.9,2.8,4.2,2.8,7.2s-.9,5.3-2.8,7.2-4.2,2.8-7.2,2.8Z"/>
    <path d="M1701.6,1433.5v-102.4h12.3v45.5h48v-45.5h12.3v102.4h-12.3v-45.8h-48v45.8h-12.3Z"/>
  </g>
  <g>
    <path d="M1968.1,1097.5v-88h-31.4v-14.3h78.7v14.3h-31.4v88h-15.8Z"/>
    <path d="M2033.8,1056.7c-3.4,0-6.3-1.1-8.6-3.4-2.3-2.2-3.4-5.1-3.4-8.6s1.1-6.4,3.4-8.6c2.3-2.2,5.1-3.3,8.6-3.3s6.3,1.1,8.6,3.4c2.3,2.2,3.4,5.1,3.4,8.5s-1.1,6.4-3.4,8.6c-2.3,2.2-5.1,3.4-8.6,3.4Z"/>
    <path d="M2051.8,1097.5l29.2-102.4h27.8l29.1,102.4h-16.2l-6.7-24.1h-40.1l-6.7,24.1h-16.4ZM2078.8,1058.7h32.2l-14.9-53.8h-2.3l-14.9,53.8Z"/>
    <path d="M2155.9,1056.7c-3.4,0-6.3-1.1-8.6-3.4-2.3-2.2-3.4-5.1-3.4-8.6s1.1-6.4,3.4-8.6c2.3-2.2,5.1-3.3,8.6-3.3s6.3,1.1,8.6,3.4c2.3,2.2,3.4,5.1,3.4,8.5s-1.1,6.4-3.4,8.6c-2.3,2.2-5.1,3.4-8.6,3.4Z"/>
    <path d="M2181.5,1097.5v-102.4h15.8v43.9h43v-43.9h15.8v102.4h-15.8v-44.2h-43v44.2h-15.8Z"/>
  </g>
  <g>
    <path d="M1968.1,929.4v-88h-31.4v-14.3h78.7v14.3h-31.4v88h-15.8Z"/>
    <path d="M2030.1,888.6c-3.4,0-6.3-1.1-8.6-3.4-2.3-2.2-3.4-5.1-3.4-8.6s1.1-6.4,3.4-8.6c2.3-2.2,5.1-3.3,8.6-3.3s6.3,1.1,8.6,3.4c2.3,2.2,3.4,5.1,3.4,8.5s-1.1,6.4-3.4,8.6c-2.3,2.2-5.1,3.4-8.6,3.4Z"/>
    <path d="M2044.4,929.4l29.2-102.4h27.8l29.1,102.4h-16.2l-6.7-24.1h-40.1l-6.7,24.1h-16.4ZM2071.5,890.7h32.2l-14.9-53.8h-2.3l-14.9,53.8Z"/>
    <path d="M2144.9,888.6c-3.4,0-6.3-1.1-8.6-3.4-2.3-2.2-3.4-5.1-3.4-8.6s1.1-6.4,3.4-8.6c2.3-2.2,5.1-3.3,8.6-3.3s6.3,1.1,8.6,3.4c2.3,2.2,3.4,5.1,3.4,8.5s-1.1,6.4-3.4,8.6c-2.3,2.2-5.1,3.4-8.6,3.4Z"/>
    <path d="M2166.8,929.4v-102.4h15.8v43.9h43v-43.9h15.8v102.4h-15.8v-44.2h-43v44.2h-15.8Z"/>
  </g>
  <g>
    <path d="M1968.1,761.4v-88h-31.4v-14.3h78.7v14.3h-31.4v88h-15.8Z"/>
    <path d="M2026.5,720.6c-3.4,0-6.3-1.1-8.6-3.4-2.3-2.2-3.4-5.1-3.4-8.6s1.1-6.4,3.4-8.6c2.3-2.2,5.1-3.3,8.6-3.3s6.3,1.1,8.6,3.4c2.3,2.2,3.4,5.1,3.4,8.5s-1.1,6.4-3.4,8.6c-2.3,2.2-5.1,3.4-8.6,3.4Z"/>
    <path d="M2037.1,761.4l29.2-102.4h27.8l29.1,102.4h-16.2l-6.7-24.1h-40.1l-6.7,24.1h-16.4ZM2064.2,722.7h32.2l-14.9-53.8h-2.3l-14.9,53.8Z"/>
    <path d="M2133.9,720.6c-3.4,0-6.3-1.1-8.6-3.4-2.3-2.2-3.4-5.1-3.4-8.6s1.1-6.4,3.4-8.6c2.3-2.2,5.1-3.3,8.6-3.3s6.3,1.1,8.6,3.4c2.3,2.2,3.4,5.1,3.4,8.5s-1.1,6.4-3.4,8.6c-2.3,2.2-5.1,3.4-8.6,3.4Z"/>
    <path d="M2152.2,761.4v-102.4h15.8v43.9h43v-43.9h15.8v102.4h-15.8v-44.2h-43v44.2h-15.8Z"/>
  </g>
  <g>
    <path d="M1968.1,1265.5v-88h-31.4v-14.3h78.7v14.3h-31.4v88h-15.8Z"/>
    <path d="M2048.4,1224.7c-3.4,0-6.3-1.1-8.6-3.4-2.3-2.2-3.4-5.1-3.4-8.6s1.1-6.4,3.4-8.6c2.3-2.2,5.1-3.3,8.6-3.3s6.3,1.1,8.6,3.4c2.3,2.2,3.4,5.1,3.4,8.5s-1.1,6.4-3.4,8.6c-2.3,2.2-5.1,3.4-8.6,3.4Z"/>
    <path d="M2081,1265.5l29.2-102.4h27.8l29.1,102.4h-16.2l-6.7-24.1h-40.1l-6.7,24.1h-16.4ZM2108.1,1226.7h32.2l-14.9-53.8h-2.3l-14.9,53.8Z"/>
    <path d="M2199.8,1224.7c-3.4,0-6.3-1.1-8.6-3.4-2.3-2.2-3.4-5.1-3.4-8.6s1.1-6.4,3.4-8.6c2.3-2.2,5.1-3.3,8.6-3.3s6.3,1.1,8.6,3.4c2.3,2.2,3.4,5.1,3.4,8.5s-1.1,6.4-3.4,8.6c-2.3,2.2-5.1,3.4-8.6,3.4Z"/>
    <path d="M2240,1265.5v-102.4h15.8v43.9h43v-43.9h15.8v102.4h-15.8v-44.2h-43v44.2h-15.8Z"/>
  </g>
  <g>
    <path d="M1968.1,1433.5v-88h-31.4v-14.3h78.7v14.3h-31.4v88h-15.8Z"/>
    <path d="M2063,1392.7c-3.4,0-6.3-1.1-8.6-3.4-2.3-2.2-3.4-5.1-3.4-8.6s1.1-6.4,3.4-8.6c2.3-2.2,5.1-3.3,8.6-3.3s6.3,1.1,8.6,3.4c2.3,2.2,3.4,5.1,3.4,8.5s-1.1,6.4-3.4,8.6c-2.3,2.2-5.1,3.4-8.6,3.4Z"/>
    <path d="M2110.3,1433.5l29.2-102.4h27.8l29.1,102.4h-16.2l-6.7-24.1h-40.1l-6.7,24.1h-16.4ZM2137.3,1394.8h32.2l-14.9-53.8h-2.3l-14.9,53.8Z"/>
    <path d="M2243.6,1392.7c-3.4,0-6.3-1.1-8.6-3.4-2.3-2.2-3.4-5.1-3.4-8.6s1.1-6.4,3.4-8.6c2.3-2.2,5.1-3.3,8.6-3.3s6.3,1.1,8.6,3.4c2.3,2.2,3.4,5.1,3.4,8.5s-1.1,6.4-3.4,8.6c-2.3,2.2-5.1,3.4-8.6,3.4Z"/>
    <path d="M2298.5,1433.5v-102.4h15.8v43.9h43v-43.9h15.8v102.4h-15.8v-44.2h-43v44.2h-15.8Z"/>
  </g>
  <g>
    <path d="M2559.3,1097.5v-84.8h-29.8v-17.5h79v17.5h-29.8v84.8h-19.3Z"/>
    <path d="M2627.8,1058.1c-3.9,0-7.2-1.3-9.9-3.9-2.7-2.6-4-5.9-4-10s1.3-7.4,4-10c2.7-2.6,6-3.9,9.9-3.9s7.3,1.3,9.9,3.9c2.6,2.6,3.9,5.9,3.9,10s-1.3,7.4-3.9,10c-2.6,2.6-5.9,3.9-9.9,3.9Z"/>
    <path d="M2646.4,1097.5l26.9-102.4h33.6l26.9,102.4h-19.9l-5.6-22.5h-36.6l-5.6,22.5h-19.9ZM2676.4,1057.1h27.5l-12.4-49.9h-2.6l-12.4,49.9Z"/>
    <path d="M2752.4,1058.1c-3.9,0-7.2-1.3-9.9-3.9-2.7-2.6-4-5.9-4-10s1.3-7.4,4-10c2.7-2.6,6-3.9,9.9-3.9s7.3,1.3,9.9,3.9c2.6,2.6,3.9,5.9,3.9,10s-1.3,7.4-3.9,10c-2.6,2.6-5.9,3.9-9.9,3.9Z"/>
    <path d="M2778,1097.5v-102.4h19.3v42.3h38v-42.3h19.3v102.4h-19.3v-42.6h-38v42.6h-19.3Z"/>
  </g>
  <g>
    <path d="M2559.3,929.4v-84.8h-29.8v-17.5h79v17.5h-29.8v84.8h-19.3Z"/>
    <path d="M2624.2,890.1c-3.9,0-7.2-1.3-9.9-3.9-2.7-2.6-4-5.9-4-10s1.3-7.4,4-10c2.7-2.6,6-3.9,9.9-3.9s7.3,1.3,9.9,3.9c2.6,2.6,3.9,5.9,3.9,10s-1.3,7.4-3.9,10c-2.6,2.6-5.9,3.9-9.9,3.9Z"/>
    <path d="M2639.1,929.4l26.9-102.4h33.6l26.9,102.4h-19.9l-5.6-22.5h-36.6l-5.6,22.5h-19.9ZM2669.1,889.1h27.5l-12.4-49.9h-2.6l-12.4,49.9Z"/>
    <path d="M2741.5,890.1c-3.9,0-7.2-1.3-9.9-3.9-2.7-2.6-4-5.9-4-10s1.3-7.4,4-10c2.7-2.6,6-3.9,9.9-3.9s7.3,1.3,9.9,3.9c2.6,2.6,3.9,5.9,3.9,10s-1.3,7.4-3.9,10c-2.6,2.6-5.9,3.9-9.9,3.9Z"/>
    <path d="M2763.4,929.4v-102.4h19.3v42.3h38v-42.3h19.3v102.4h-19.3v-42.6h-38v42.6h-19.3Z"/>
  </g>
  <g>
    <path d="M2559.3,761.4v-84.8h-29.8v-17.5h79v17.5h-29.8v84.8h-19.3Z"/>
    <path d="M2620.5,722.1c-3.9,0-7.2-1.3-9.9-3.9-2.7-2.6-4-5.9-4-10s1.3-7.4,4-10c2.7-2.6,6-3.9,9.9-3.9s7.3,1.3,9.9,3.9c2.6,2.6,3.9,5.9,3.9,10s-1.3,7.4-3.9,10c-2.6,2.6-5.9,3.9-9.9,3.9Z"/>
    <path d="M2631.8,761.4l26.9-102.4h33.6l26.9,102.4h-19.9l-5.6-22.5h-36.6l-5.6,22.5h-19.9ZM2661.8,721h27.5l-12.4-49.9h-2.6l-12.4,49.9Z"/>
    <path d="M2730.5,722.1c-3.9,0-7.2-1.3-9.9-3.9-2.7-2.6-4-5.9-4-10s1.3-7.4,4-10c2.7-2.6,6-3.9,9.9-3.9s7.3,1.3,9.9,3.9c2.6,2.6,3.9,5.9,3.9,10s-1.3,7.4-3.9,10c-2.6,2.6-5.9,3.9-9.9,3.9Z"/>
    <path d="M2748.8,761.4v-102.4h19.3v42.3h38v-42.3h19.3v102.4h-19.3v-42.6h-38v42.6h-19.3Z"/>
  </g>
  <g>
    <path d="M2559.3,1265.5v-84.8h-29.8v-17.5h79v17.5h-29.8v84.8h-19.3Z"/>
    <path d="M2642.5,1226.2c-3.9,0-7.2-1.3-9.9-3.9-2.7-2.6-4-5.9-4-10s1.3-7.4,4-10c2.7-2.6,6-3.9,9.9-3.9s7.3,1.3,9.9,3.9c2.6,2.6,3.9,5.9,3.9,10s-1.3,7.4-3.9,10c-2.6,2.6-5.9,3.9-9.9,3.9Z"/>
    <path d="M2675.7,1265.5l26.9-102.4h33.6l26.9,102.4h-19.9l-5.6-22.5h-36.6l-5.6,22.5h-19.9ZM2705.6,1225.1h27.5l-12.4-49.9h-2.6l-12.4,49.9Z"/>
    <path d="M2796.3,1226.2c-3.9,0-7.2-1.3-9.9-3.9-2.7-2.6-4-5.9-4-10s1.3-7.4,4-10c2.7-2.6,6-3.9,9.9-3.9s7.3,1.3,9.9,3.9c2.6,2.6,3.9,5.9,3.9,10s-1.3,7.4-3.9,10c-2.6,2.6-5.9,3.9-9.9,3.9Z"/>
    <path d="M2836.5,1265.5v-102.4h19.3v42.3h38v-42.3h19.3v102.4h-19.3v-42.6h-38v42.6h-19.3Z"/>
  </g>
  <g>
    <path d="M785.5,2282.2v-93.9h-34.2v-8.5h77.8v8.5h-34.2v93.9h-9.4Z"/>
    <path d="M860.6,2238.8c-2.4,0-4.4-.8-6-2.3-1.6-1.6-2.3-3.6-2.3-6s.8-4.4,2.3-6c1.6-1.6,3.6-2.3,6-2.3s4.4.8,6,2.3c1.6,1.6,2.3,3.6,2.3,6s-.8,4.4-2.3,6-3.6,2.3-6,2.3Z"/>
    <path d="M892,2282.2l33.5-102.4h16.7l33.5,102.4h-9.8l-8.8-27.2h-46.5l-8.8,27.2h-9.8ZM913.2,2246.6h41.2l-19.7-61.1h-1.8l-19.7,61.1Z"/>
    <path d="M1007.1,2238.8c-2.4,0-4.4-.8-6-2.3-1.6-1.6-2.3-3.6-2.3-6s.8-4.4,2.3-6c1.6-1.6,3.6-2.3,6-2.3s4.4.8,6,2.3c1.6,1.6,2.3,3.6,2.3,6s-.8,4.4-2.3,6-3.6,2.3-6,2.3Z"/>
    <path d="M1047,2282.2v-102.4h9.4v46.8h52.1v-46.8h9.4v102.4h-9.4v-47.1h-52.1v47.1h-9.4Z"/>
  </g>
  <g>
    <path d="M1377,2282.2v-91.3h-32.9v-11.1h78.1v11.1h-32.9v91.3h-12.3Z"/>
    <path d="M1454.3,2240c-2.8,0-5.2-.9-7.1-2.8-1.9-1.9-2.9-4.2-2.9-7.2s1-5.3,2.9-7.2c1.9-1.9,4.3-2.8,7.1-2.8s5.3.9,7.2,2.8c1.9,1.9,2.8,4.2,2.8,7.2s-.9,5.3-2.8,7.2c-1.9,1.9-4.2,2.8-7.2,2.8Z"/>
    <path d="M1486.4,2282.2l31.6-102.4h21.6l31.6,102.4h-12.7l-7.9-25.9h-43.6l-7.9,25.9h-12.7ZM1510,2245.2h37.3l-17.5-57.9h-2l-17.7,57.9Z"/>
    <path d="M1603.1,2240c-2.8,0-5.2-.9-7.1-2.8-1.9-1.9-2.9-4.2-2.9-7.2s1-5.3,2.9-7.2c1.9-1.9,4.3-2.8,7.1-2.8s5.3.9,7.2,2.8c1.9,1.9,2.8,4.2,2.8,7.2s-.9,5.3-2.8,7.2c-1.9,1.9-4.2,2.8-7.2,2.8Z"/>
    <path d="M1643.1,2282.2v-102.4h12.3v45.5h48v-45.5h12.3v102.4h-12.3v-45.8h-48v45.8h-12.3Z"/>
  </g>
  <g>
    <path d="M1968.1,2282.2v-88h-31.4v-14.3h78.7v14.3h-31.4v88h-15.8Z"/>
    <path d="M2048.4,2241.4c-3.4,0-6.3-1.1-8.6-3.4-2.3-2.2-3.4-5.1-3.4-8.6s1.1-6.4,3.4-8.6c2.3-2.2,5.1-3.3,8.6-3.3s6.3,1.1,8.6,3.4c2.3,2.2,3.4,5.1,3.4,8.5s-1.1,6.4-3.4,8.6c-2.3,2.2-5.1,3.4-8.6,3.4Z"/>
    <path d="M2081,2282.2l29.2-102.4h27.8l29.1,102.4h-16.2l-6.7-24.1h-40.1l-6.7,24.1h-16.4ZM2108.1,2243.5h32.2l-14.9-53.8h-2.3l-14.9,53.8Z"/>
    <path d="M2199.8,2241.4c-3.4,0-6.3-1.1-8.6-3.4-2.3-2.2-3.4-5.1-3.4-8.6s1.1-6.4,3.4-8.6c2.3-2.2,5.1-3.3,8.6-3.3s6.3,1.1,8.6,3.4c2.3,2.2,3.4,5.1,3.4,8.5s-1.1,6.4-3.4,8.6c-2.3,2.2-5.1,3.4-8.6,3.4Z"/>
    <path d="M2240,2282.2v-102.4h15.8v43.9h43v-43.9h15.8v102.4h-15.8v-44.2h-43v44.2h-15.8Z"/>
  </g>
  <g>
    <path d="M1968.1,2909.9v-88h-31.4v-14.3h78.7v14.3h-31.4v88h-15.8Z"/>
    <path d="M2048.4,2869.1c-3.4,0-6.3-1.1-8.6-3.4-2.3-2.2-3.4-5.1-3.4-8.6s1.1-6.4,3.4-8.6c2.3-2.2,5.1-3.3,8.6-3.3s6.3,1.1,8.6,3.4c2.3,2.2,3.4,5.1,3.4,8.5s-1.1,6.4-3.4,8.6c-2.3,2.2-5.1,3.4-8.6,3.4Z"/>
    <path d="M2081,2909.9l29.2-102.4h27.8l29.1,102.4h-16.2l-6.7-24.1h-40.1l-6.7,24.1h-16.4ZM2108.1,2871.2h32.2l-14.9-53.8h-2.3l-14.9,53.8Z"/>
    <path d="M2199.8,2869.1c-3.4,0-6.3-1.1-8.6-3.4-2.3-2.2-3.4-5.1-3.4-8.6s1.1-6.4,3.4-8.6c2.3-2.2,5.1-3.3,8.6-3.3s6.3,1.1,8.6,3.4c2.3,2.2,3.4,5.1,3.4,8.5s-1.1,6.4-3.4,8.6c-2.3,2.2-5.1,3.4-8.6,3.4Z"/>
    <path d="M2240,2909.9v-102.4h15.8v43.9h43v-43.9h15.8v102.4h-15.8v-44.2h-43v44.2h-15.8Z"/>
  </g>
  <g>
    <path d="M1968.1,2628.1v-88h-31.4v-14.3h78.7v14.3h-31.4v88h-15.8Z"/>
    <path d="M2048.4,2587.3c-3.4,0-6.3-1.1-8.6-3.4-2.3-2.2-3.4-5.1-3.4-8.6s1.1-6.4,3.4-8.6c2.3-2.2,5.1-3.3,8.6-3.3s6.3,1.1,8.6,3.4c2.3,2.2,3.4,5.1,3.4,8.5s-1.1,6.4-3.4,8.6c-2.3,2.2-5.1,3.4-8.6,3.4Z"/>
    <path d="M2081,2628.1l29.2-102.4h27.8l29.1,102.4h-16.2l-6.7-24.1h-40.1l-6.7,24.1h-16.4ZM2108.1,2589.3h32.2l-14.9-53.8h-2.3l-14.9,53.8Z"/>
    <path d="M2199.8,2587.3c-3.4,0-6.3-1.1-8.6-3.4-2.3-2.2-3.4-5.1-3.4-8.6s1.1-6.4,3.4-8.6c2.3-2.2,5.1-3.3,8.6-3.3s6.3,1.1,8.6,3.4c2.3,2.2,3.4,5.1,3.4,8.5s-1.1,6.4-3.4,8.6c-2.3,2.2-5.1,3.4-8.6,3.4Z"/>
    <path d="M2240,2628.1v-102.4h15.8v43.9h43v-43.9h15.8v102.4h-15.8v-44.2h-43v44.2h-15.8Z"/>
  </g>
  <g>
    <path d="M2559.3,2282.2v-84.8h-29.8v-17.5h79v17.5h-29.8v84.8h-19.3Z"/>
    <path d="M2642.5,2242.9c-3.9,0-7.2-1.3-9.9-3.9-2.7-2.6-4-5.9-4-10s1.3-7.4,4-10c2.7-2.6,6-3.9,9.9-3.9s7.3,1.3,9.9,3.9c2.6,2.6,3.9,5.9,3.9,10s-1.3,7.4-3.9,10c-2.6,2.6-5.9,3.9-9.9,3.9Z"/>
    <path d="M2675.7,2282.2l26.9-102.4h33.6l26.9,102.4h-19.9l-5.6-22.5h-36.6l-5.6,22.5h-19.9ZM2705.6,2241.9h27.5l-12.4-49.9h-2.6l-12.4,49.9Z"/>
    <path d="M2796.3,2242.9c-3.9,0-7.2-1.3-9.9-3.9-2.7-2.6-4-5.9-4-10s1.3-7.4,4-10c2.7-2.6,6-3.9,9.9-3.9s7.3,1.3,9.9,3.9c2.6,2.6,3.9,5.9,3.9,10s-1.3,7.4-3.9,10c-2.6,2.6-5.9,3.9-9.9,3.9Z"/>
    <path d="M2836.5,2282.2v-102.4h19.3v42.3h38v-42.3h19.3v102.4h-19.3v-42.6h-38v42.6h-19.3Z"/>
  </g>
  <g>
    <path d="M2559.3,1433.5v-84.8h-29.8v-17.5h79v17.5h-29.8v84.8h-19.3Z"/>
    <path d="M2657.1,1394.2c-3.9,0-7.2-1.3-9.9-3.9-2.7-2.6-4-5.9-4-10s1.3-7.4,4-10c2.7-2.6,6-3.9,9.9-3.9s7.3,1.3,9.9,3.9c2.6,2.6,3.9,5.9,3.9,10s-1.3,7.4-3.9,10c-2.6,2.6-5.9,3.9-9.9,3.9Z"/>
    <path d="M2704.9,1433.5l26.9-102.4h33.6l26.9,102.4h-19.9l-5.6-22.5h-36.6l-5.6,22.5h-19.9ZM2734.9,1393.2h27.5l-12.4-49.9h-2.6l-12.4,49.9Z"/>
    <path d="M2840.2,1394.2c-3.9,0-7.2-1.3-9.9-3.9-2.7-2.6-4-5.9-4-10s1.3-7.4,4-10c2.7-2.6,6-3.9,9.9-3.9s7.3,1.3,9.9,3.9c2.6,2.6,3.9,5.9,3.9,10s-1.3,7.4-3.9,10c-2.6,2.6-5.9,3.9-9.9,3.9Z"/>
    <path d="M2895,1433.5v-102.4h19.3v42.3h38v-42.3h19.3v102.4h-19.3v-42.6h-38v42.6h-19.3Z"/>
  </g>
</svg>