<svg xmlns="http://www.w3.org/2000/svg" viewBox="0 0 1000 1000" width="1000" height="1000">
  <rect width="1000" height="1000" fill="#1A1815"/>
  <g fill="#F5F2EC" transform="translate(100.0 611.0229976209357) scale(0.317208564631245 -0.317208564631245)">
      <path d="M239.899169921875 0V601.698486328125H25.39990234375V700H562.60009765625V601.698486328125H348.100830078125V0Z" transform="translate(0 0)" />
      <path d="M101.62554931640625 204.9990234375Q66.5501708984375 204.9990234375 43.07489013671875 227.9748951981707Q19.599609375 250.95076695884146 19.599609375 286.85056658488946Q19.599609375 322.7503662109375 43.07489013671875 345.57562255859375Q66.5501708984375 368.40087890625 101.62554931640625 368.40087890625Q136.700927734375 368.40087890625 159.8511962890625 345.4250071455793Q183.00146484375 322.4491353849086 183.00146484375 286.54933575886054Q183.00146484375 250.6495361328125 159.8511962890625 227.82427978515625Q136.700927734375 204.9990234375 101.62554931640625 204.9990234375Z" transform="translate(648 0)" />
      <path d="M21.499755859375 0 221.2486572265625 700H410.6514892578125L610.400390625 0H498.5487060546875L452.8492431640625 165.19921875H179.0509033203125L133.3514404296875 0ZM205.501220703125 264.80078125H426.39892578125L323.900146484375 632.7489013671875H308Z" transform="translate(911 0)" />
      <path d="M101.62554931640625 204.9990234375Q66.5501708984375 204.9990234375 43.07489013671875 227.9748951981707Q19.599609375 250.95076695884146 19.599609375 286.85056658488946Q19.599609375 322.7503662109375 43.07489013671875 345.57562255859375Q66.5501708984375 368.40087890625 101.62554931640625 368.40087890625Q136.700927734375 368.40087890625 159.8511962890625 345.4250071455793Q183.00146484375 322.4491353849086 183.00146484375 286.54933575886054Q183.00146484375 250.6495361328125 159.8511962890625 227.82427978515625Q136.700927734375 204.9990234375 101.62554931640625 204.9990234375Z" transform="translate(1603 0)" />
      <path d="M72.99951171875 0V700H181.201171875V400.1507568359375H474.798828125V700H583.00048828125V0H474.798828125V301.8492431640625H181.201171875V0Z" transform="translate(1866 0)" />
  </g>
</svg>
